<?xml version="1.0" standalone="no"?>
<!DOCTYPE svg PUBLIC "-//W3C//DTD SVG 20010904//EN"
 "http://www.w3.org/TR/2001/REC-SVG-20010904/DTD/svg10.dtd">
<svg version="1.0" xmlns="http://www.w3.org/2000/svg"
 width="864.000000pt" height="864.000000pt" viewBox="0 0 864.000000 864.000000"
 preserveAspectRatio="xMidYMid meet">
<metadata>
Created by potrace 1.14, written by Peter Selinger 2001-2017
</metadata>
<g transform="translate(0.000000,864.000000) scale(0.100000,-0.100000)"
fill="#000000" stroke="none">
<path d="M2575 8353 c-105 -9 -212 -36 -295 -75 -37 -18 -184 -102 -190 -108
-3 -3 -30 -19 -60 -34 -30 -16 -57 -31 -60 -35 -3 -3 -24 -19 -46 -34 -152
-103 -280 -317 -309 -517 -26 -175 11 -352 110 -524 25 -44 45 -83 45 -88 0
-4 5 -8 10 -8 6 0 10 -5 10 -11 0 -6 17 -39 37 -73 21 -33 38 -63 38 -66 0 -3
9 -18 19 -35 11 -16 30 -47 43 -67 12 -21 23 -39 23 -42 0 -2 59 -104 130
-226 72 -123 130 -227 130 -232 0 -4 5 -8 11 -8 5 0 8 -4 4 -9 -3 -5 0 -13 5
-16 6 -4 15 -17 20 -28 6 -12 21 -40 34 -62 14 -22 37 -62 51 -90 15 -27 34
-58 43 -67 8 -10 12 -18 8 -18 -4 0 0 -7 8 -16 9 -8 16 -22 16 -30 0 -8 5 -14
10 -14 6 0 10 -4 10 -9 0 -5 20 -44 45 -85 25 -42 45 -79 45 -81 0 -3 20 -36
45 -75 25 -39 45 -73 45 -76 0 -3 22 -43 50 -90 27 -47 50 -87 50 -89 0 -3 15
-28 33 -57 19 -29 45 -73 59 -98 14 -25 67 -117 118 -205 124 -214 139 -240
201 -350 18 -33 37 -61 41 -63 4 -2 8 -8 8 -14 0 -6 20 -44 45 -85 25 -40 45
-76 45 -79 0 -3 8 -18 19 -32 10 -15 29 -47 43 -72 14 -25 85 -148 157 -274
72 -125 131 -232 131 -237 0 -5 5 -9 10 -9 6 0 10 -4 10 -9 0 -4 22 -46 50
-92 27 -46 54 -93 60 -104 5 -11 23 -42 40 -70 16 -27 35 -61 42 -75 7 -14 24
-43 37 -65 27 -42 34 -54 73 -125 14 -25 36 -63 49 -85 13 -22 31 -52 39 -67
8 -15 33 -58 54 -95 22 -38 120 -207 218 -378 98 -170 183 -317 188 -325 5 -8
22 -37 38 -65 15 -27 70 -122 122 -210 123 -211 136 -235 155 -270 11 -20 73
-67 182 -140 91 -60 171 -114 177 -120 6 -5 23 -16 39 -24 15 -8 27 -18 27
-23 0 -4 4 -8 8 -8 8 0 182 -114 330 -218 34 -23 66 -42 71 -42 6 0 14 -6 18
-13 4 -8 15 -17 23 -20 8 -4 27 -15 41 -25 79 -53 115 -77 119 -83 3 -3 10 -8
15 -10 21 -8 350 -233 353 -241 2 -4 8 -8 13 -8 5 0 73 -43 150 -95 139 -96
179 -119 165 -97 -3 6 -9 46 -11 89 -18 300 -26 415 -40 578 -2 22 -6 85 -9
140 -4 55 -9 129 -12 165 -3 36 -7 97 -9 135 -6 101 -15 231 -20 300 -3 33 -7
94 -10 135 -4 66 -11 158 -19 283 -2 21 1 40 6 43 4 3 6 9 4 13 -3 4 -8 38
-11 75 -3 38 -8 72 -10 77 -3 4 -1 10 4 14 6 3 -1 21 -14 42 -14 20 -25 42
-25 49 0 7 -3 14 -7 16 -10 4 -52 76 -60 101 -3 9 -9 17 -14 17 -5 0 -9 4 -9
10 0 5 -19 42 -43 82 -24 40 -46 80 -50 88 -4 8 -16 29 -27 45 -11 17 -23 36
-27 44 -3 8 -35 64 -71 125 -53 92 -291 504 -352 611 -9 17 -30 53 -47 80 -16
28 -32 57 -36 65 -4 8 -16 29 -27 45 -11 17 -24 39 -29 51 -5 12 -26 46 -45
77 -20 31 -36 58 -36 60 0 3 -18 35 -40 71 -22 36 -40 70 -40 76 0 5 -4 10
-10 10 -5 0 -9 3 -8 8 1 4 -5 18 -14 32 -9 14 -51 86 -93 160 -43 74 -109 189
-146 254 -38 66 -69 123 -69 128 0 4 -3 8 -8 8 -4 0 -12 9 -17 19 -43 85 -61
117 -66 121 -3 3 -16 25 -30 50 -13 25 -27 47 -31 48 -5 2 -8 8 -8 14 0 5 -9
22 -19 36 -10 15 -20 32 -21 37 -2 6 -9 20 -16 33 -8 12 -20 32 -28 45 -7 12
-14 27 -16 32 -1 6 -10 21 -20 35 -10 14 -27 42 -39 63 -11 20 -29 52 -40 70
-10 17 -41 73 -69 122 -28 50 -56 95 -62 102 -5 7 -10 15 -10 17 0 3 -27 51
-60 107 -33 55 -60 102 -60 104 0 2 -27 49 -60 104 -33 56 -60 106 -60 111 0
6 -4 10 -10 10 -5 0 -10 4 -10 10 0 8 -79 147 -213 375 -23 39 -40 73 -39 78
1 4 -2 7 -8 7 -5 0 -10 5 -10 10 0 6 -27 55 -60 110 -33 55 -60 103 -60 106 0
4 -6 15 -14 23 -8 9 -26 39 -41 66 -14 28 -36 66 -47 85 -47 80 -328 569 -354
615 -15 28 -54 94 -86 148 -32 53 -58 100 -58 102 0 15 -82 119 -136 171 -74
73 -126 110 -215 152 -112 53 -263 83 -374 75z"/>
</g>
</svg>
