<svg width="401" height="654" viewBox="0 0 401 654" fill="none" xmlns="http://www.w3.org/2000/svg">
<path d="M237.289 210.693C229.629 227.227 228.13 245.973 228.727 264.187C229.415 285.16 232.889 306.52 242.985 324.92C253.081 343.32 270.609 358.453 291.327 361.827C311.346 365.067 332.185 356.893 346.974 343.013C361.763 329.147 370.981 310.133 376.05 290.493C383.621 261.173 381.917 228.133 364.943 203.04C334.245 157.667 260.865 159.8 237.289 210.693Z" fill="white"/>
<path d="M368.733 290.427C364.238 307.853 356.053 324.733 342.917 337.067C329.795 349.387 311.294 356.64 293.511 353.747C278.689 351.347 265.705 342.147 256.523 330.107C264.945 338.44 275.439 344.52 287.069 346.413C304.837 349.28 323.351 342.027 336.474 329.707C349.609 317.387 357.795 300.52 362.289 283.08C369.009 257.04 367.502 227.707 352.43 205.427C351.85 204.587 351.269 203.747 350.661 202.933C353.661 205.867 356.426 209.16 358.874 212.787C373.946 235.053 375.453 264.387 368.733 290.427" fill="#E6E6E6"/>
<path d="M240.115 212.013C233.755 225.733 231.125 242.28 231.84 264.08C232.639 288.453 237.176 307.853 245.715 323.413C256.216 342.56 273.455 355.76 291.825 358.747C309.881 361.68 329.704 354.947 344.841 340.747C357.808 328.573 367.556 310.933 373.033 289.72C381.245 257.907 377.358 226.947 362.363 204.787C348.08 183.68 322.729 171.893 296.199 174.04C271.16 176.053 250.193 190.253 240.115 212.013V212.013ZM300.271 365.653C297.096 365.653 293.94 365.4 290.828 364.893C270.577 361.613 251.671 347.227 240.253 326.413C231.233 309.973 226.444 289.653 225.613 264.28C224.865 241.48 227.677 224.027 234.461 209.387C245.496 185.56 268.389 170.027 295.699 167.827C324.455 165.507 351.984 178.333 367.523 201.293C383.516 224.933 387.724 257.733 379.066 291.28C373.292 313.64 362.932 332.307 349.105 345.293C335.147 358.387 317.449 365.653 300.271 365.653" fill="#333333"/>
<path d="M30.377 204.213C19.673 222.266 15.0263 243.32 13.049 264.213C10.4343 291.866 13.665 323.053 34.3863 341.546C57.741 362.386 96.7757 357.946 119.976 336.946C143.176 315.933 152.126 282.653 150.522 251.4C149.438 230.24 143.697 208.666 130.242 192.306C99.7397 155.213 53.093 165.88 30.377 204.213" fill="white"/>
<path d="M125.775 319.28C122.5 324.213 118.636 328.747 114.197 332.773C93.7974 351.253 59.4507 355.147 38.9147 336.813C20.6787 320.547 17.8427 293.107 20.144 268.787C21.884 250.4 25.9667 231.88 35.38 216C37.804 211.92 40.5307 208.187 43.5173 204.853C42.832 205.893 42.1613 206.947 41.5173 208.027C32.1053 223.907 28.008 242.427 26.268 260.813C23.9667 285.133 26.816 312.573 45.0374 328.84C65.588 347.173 99.9214 343.28 120.335 324.8C122.267 323.04 124.075 321.213 125.775 319.28" fill="#E6E6E6"/>
<path d="M33.0568 205.8C23.9661 221.133 18.4368 240.333 16.1501 264.507C13.8981 288.32 15.5941 320.6 36.4595 339.227C59.4701 359.747 97.1381 353.427 117.883 334.627C138.405 316.053 149.167 285.773 147.411 251.56C146.577 235.28 142.503 212.12 127.837 194.28C115.263 178.987 98.8848 171.307 81.7102 172.613C62.6995 174.067 44.5115 186.48 33.0555 205.8H33.0568ZM72.6128 358.347C57.6422 358.347 43.1875 353.573 32.3115 343.867C9.50349 323.52 7.56081 289.16 9.94881 263.92C12.3235 238.813 18.1288 218.76 27.6968 202.613H27.6981C40.1875 181.547 60.2008 168.013 81.2341 166.4C100.497 164.933 118.747 173.413 132.649 190.32C145.111 205.48 152.367 226.547 153.633 251.24C155.485 287.32 143.979 319.4 122.066 339.253C108.105 351.893 90.0102 358.347 72.6128 358.347" fill="#333333"/>
<path d="M86.7885 290.44C95.9792 296.04 108.301 295.507 117.477 289.88C140.167 275.96 122.787 244.773 100.203 244.347C75.3312 243.88 65.0965 277.213 86.7885 290.44" fill="#333333"/>
<path d="M278.296 290.44C287.488 296.04 299.81 295.507 308.984 289.88C331.676 275.96 314.296 244.773 291.712 244.347C266.839 243.88 256.604 277.213 278.296 290.44" fill="#333333"/>
<path d="M318.856 649.32C314.009 650.013 309.141 650.307 304.292 650.427C276.357 651.04 248.28 642.933 220.833 635.453C217.309 634.507 213.722 633.547 210.197 632.587C189.038 627 166.9 621.053 145.26 619.933C132.738 619.227 120.354 620.187 108.392 623.733C106.354 624.333 104.309 625.013 102.25 625.8C100.4 576.227 107.817 526.253 124.062 479.387C128.69 465.96 134.129 452.667 141.592 440.68C145.121 435.08 149.065 429.787 153.596 424.92C167.706 409.707 188.308 399.2 208.988 401.56C233.436 404.373 252.174 423.573 266.085 444.48C267.673 446.88 269.197 449.267 270.657 451.653C306.445 510.48 323.526 580.533 318.856 649.32" fill="#333333"/>
<path d="M266.08 444.48C265.224 444.8 264.352 445.106 263.479 445.4C225.136 458.693 181.856 457.426 144.386 441.866C143.591 441.546 142.812 441.213 142.034 440.88C141.894 440.813 141.739 440.746 141.598 440.68C141.754 440.453 141.894 440.2 142.05 439.973C145.46 434.626 149.246 429.586 153.59 424.92C167.7 409.706 188.304 399.2 208.987 401.546C233.438 404.386 252.172 423.573 266.08 444.48" fill="white"/>
<path d="M279.135 615.2C273.495 625.026 261.542 629.08 250.476 631.4C240.71 633.466 230.766 634.813 220.834 635.453C217.31 634.506 213.723 633.546 210.198 632.586C189.039 627 166.9 621.053 145.26 619.933C135.68 611.4 129.652 599.426 128.259 585.786C127.567 579.786 127.868 573.466 129.138 566.973C131.788 553.586 144.323 541.186 157.723 543.786C169 546.013 176.718 557.653 188.035 559.52C205.971 562.533 219.1 540.466 237.196 539.04C246.828 538.226 256.034 543.746 262.242 551.093C268.45 558.44 272.176 567.56 275.798 576.48C279.164 584.786 282.487 594.12 282.376 602.826C282.294 607.146 281.33 611.36 279.135 615.2" fill="#ED373E"/>
<path d="M191.203 574.626C189.916 574.626 188.608 574.52 187.275 574.306C174.863 572.333 166.281 560.586 153.885 558.24C152.481 557.973 151.087 557.853 149.712 557.853C144.518 557.853 139.595 559.626 135.383 562.533C140.133 555.68 147.427 550.733 155.328 550.733C156.517 550.733 157.72 550.84 158.929 551.08C170.207 553.306 177.931 564.946 189.237 566.8C190.384 567 191.512 567.093 192.621 567.093C208.877 567.093 221.464 547.666 238.404 546.346C239.033 546.28 239.664 546.266 240.291 546.266C249.224 546.266 257.655 551.52 263.447 558.373C266.079 561.493 268.259 564.92 270.175 568.506C269.645 567.866 269.1 567.24 268.54 566.626C262.047 559.64 252.656 554.253 242.751 554.253C242.153 554.253 241.557 554.28 240.957 554.306C222.475 555.48 208.919 574.626 191.203 574.626" fill="#F16167"/>
<path d="M153.67 0.346428C155.61 7.23976 157.248 14.2265 158.578 21.2532C161.216 35.2265 153.216 48.9864 139.9 53.9464C122.845 60.3064 106.12 67.3999 88.577 72.6532C70.6957 78.0265 52.505 83.5332 37.0343 93.9865C21.565 104.44 8.95301 120.786 7.67301 139.413C-5.62966 118.186 2.17566 89.7198 19.8583 71.9731C37.541 54.2398 61.9743 45.3331 85.5117 36.7731C109.049 28.2131 136.516 18.5998 153.67 0.346428" fill="#333333"/>
<path d="M247.429 0.346428C245.697 6.49309 244.206 12.7199 242.961 18.9865C239.973 34.0265 248.208 49.0798 262.562 54.4665C279.145 60.6798 295.447 67.5332 312.522 72.6532C330.403 78.0265 348.596 83.5332 364.065 93.9865C379.534 104.44 392.146 120.786 393.426 139.413C406.729 118.186 398.924 89.7198 381.241 71.9731C363.558 54.2398 339.125 45.3331 315.588 36.7731C292.05 28.2131 264.584 18.5998 247.429 0.346428" fill="#333333"/>
<path d="M266.081 444.48C265.225 444.8 264.353 445.107 263.48 445.4C247.004 432.613 226.352 425.08 205.358 424.307C183.82 423.48 162.078 429.773 144.386 441.867C143.592 442.413 142.798 442.96 142.02 443.533C142.02 442.68 142.02 441.773 142.034 440.88C142.034 440.573 142.034 440.28 142.05 439.973C145.461 434.627 149.246 429.587 153.59 424.92C167.701 409.707 188.305 399.2 208.988 401.547C233.438 404.387 252.173 423.573 266.081 444.48" fill="#E6E6E6"/>
<path d="M304.299 650.427C276.359 651.04 248.279 642.933 220.837 635.453C217.303 634.507 213.72 633.533 210.201 632.587C189.036 627.013 166.905 621.067 145.257 619.947C132.736 619.227 120.355 620.173 108.395 623.72C109.36 614.8 112.475 605.333 113.799 597.2V597.16C114.545 592.733 115.729 587.613 119.809 585.693C122.427 584.453 125.432 584.907 128.251 585.787C129.061 585.987 129.855 586.267 130.649 586.547C179.116 603.36 231.397 608.92 282.371 602.827C285.859 602.44 289.332 601.987 292.773 601.453C293.552 601.333 294.332 602.08 295.095 603.467C299.657 611.667 303.847 642.373 304.299 650.427" fill="white"/>
<path d="M304.299 650.427C276.359 651.04 248.279 642.933 220.837 635.453C217.303 634.507 213.72 633.533 210.201 632.587C189.036 627.013 166.905 621.067 145.257 619.947C132.736 619.227 120.355 620.173 108.395 623.72C109.36 614.8 112.475 605.333 113.799 597.2V597.16C115.449 596.6 117.256 596.373 119 596.467C122.567 596.64 125.961 597.92 129.309 599.147C173.228 615.213 220.589 624.893 266.859 618.04C272.699 617.187 278.587 616.027 283.896 613.453C288.476 611.24 292.633 607.853 295.095 603.467C299.657 611.667 303.847 642.373 304.299 650.427" fill="#E6E6E6"/>
<path d="M137.615 616.6C140.169 616.6 142.773 616.68 145.435 616.827C166.929 617.947 188.652 623.68 209.661 629.227L225.863 633.6C251.577 640.627 278.172 647.88 304.223 647.307C308.525 647.213 312.375 646.96 315.911 646.56C319.941 579.307 302.968 510.76 267.996 453.267C266.556 450.92 265.037 448.547 263.487 446.2C246.645 420.893 228.187 406.907 208.629 404.653C190.515 402.587 170.793 410.96 155.879 427.04C151.709 431.507 147.9 436.507 144.227 442.347C137.955 452.413 132.48 464.52 127.005 480.4C111.48 525.187 103.975 573.867 105.228 621.453C105.956 621.213 106.712 620.973 107.5 620.747C116.863 617.973 126.775 616.6 137.615 616.6V616.6ZM301.275 653.573C275.335 653.573 249.367 646.48 224.221 639.613L208.071 635.253C187.368 629.787 165.961 624.133 145.096 623.053C131.848 622.293 120.139 623.493 109.276 626.72C107.04 627.387 105.164 628.013 103.375 628.707L99.2999 630.293L99.1372 625.92C97.2812 576.227 104.883 525.213 121.117 478.373C126.747 462.027 132.412 449.533 138.947 439.04C142.841 432.853 146.884 427.547 151.317 422.8C167.568 405.28 189.267 396.173 209.339 398.467C230.807 400.947 250.769 415.84 268.677 442.76C270.271 445.16 271.829 447.613 273.312 450.027C309.395 509.347 326.671 580.187 321.963 649.533L321.792 652.053L319.292 652.4C314.84 653.04 309.956 653.413 304.364 653.533C303.336 653.56 302.304 653.573 301.275 653.573" fill="#333333"/>
<path d="M85.9571 282.586H75.8038C70.9465 282.586 67.0078 278.653 67.0078 273.786C67.0078 268.933 70.9465 265 75.8038 265H85.9571C90.8145 265 94.7531 268.933 94.7531 273.786C94.7531 278.653 90.8145 282.586 85.9571 282.586Z" fill="white"/>
<path d="M278.231 282.586H268.079C263.22 282.586 259.281 278.653 259.281 273.786C259.281 268.933 263.22 265 268.079 265H278.231C283.088 265 287.027 268.933 287.027 273.786C287.027 278.653 283.088 282.586 278.231 282.586Z" fill="white"/>
</svg>
