<svg width="84" height="7" viewBox="0 0 84 7" fill="none" xmlns="http://www.w3.org/2000/svg">
<path d="M83.6094 3.13516L77.3397 6.20513L77.3397 0.0651858L83.6094 3.13516Z" fill="#FFDBA7"/>
<path d="M68.4697 0.000648499L68.4697 6.20544L77.3382 6.20544L77.3382 0.000648111L68.4697 0.000648499Z" fill="#FFDBA7"/>
<path d="M83.6094 3.13046L81.5952 4.11686L81.5952 2.14441L83.6094 3.13046Z" fill="#2F2F2F"/>
<g style="mix-blend-mode:soft-light">
<path d="M77.3389 2.03953L77.3389 0.0653009L83.6036 3.13281L77.3389 2.03953Z" fill="#D4D4D4"/>
</g>
<path d="M2.33887 5.16576C2.33896 4.89008 2.44854 4.62572 2.64351 4.43082C2.83848 4.23592 3.10287 4.12643 3.37855 4.12643L76.982 4.12643C77.5562 4.12643 78.3463 4.59193 78.3463 5.16611C78.3463 5.74028 77.5559 6.20544 76.982 6.20544L3.37855 6.20544C3.10281 6.20544 2.83836 6.0959 2.64338 5.90093C2.4484 5.70595 2.33887 5.4415 2.33887 5.16576Z" fill="#07BE00"/>
<path d="M2.3389 3.10313C2.33784 2.96553 2.36389 2.82908 2.41556 2.70155C2.46723 2.57403 2.54352 2.45793 2.64007 2.35989C2.73661 2.26185 2.85152 2.18378 2.97824 2.13015C3.10495 2.07652 3.24099 2.04837 3.37858 2.04732L76.9821 2.04732C77.5562 2.04732 78.3463 2.51984 78.3463 3.10312C78.3463 3.68641 77.5559 4.15893 76.9821 4.15893L3.37858 4.15893C3.24099 4.15788 3.10495 4.12973 2.97824 4.0761C2.85152 4.02247 2.73661 3.94441 2.64007 3.84636C2.54352 3.74832 2.46723 3.63222 2.41556 3.5047C2.36389 3.37717 2.33784 3.24072 2.3389 3.10313Z" fill="#07C700"/>
<path d="M2.33887 1.04027C2.33896 0.764591 2.44854 0.500233 2.64351 0.305331C2.83848 0.110428 3.10287 0.000938381 3.37855 0.000938384L76.982 0.000937719C77.5562 0.000937694 78.3463 0.466446 78.3463 1.04062C78.3463 1.61479 77.5559 2.07995 76.982 2.07995L3.37855 2.07995C3.10281 2.07995 2.83836 1.97042 2.64338 1.77544C2.4484 1.58046 2.33887 1.31601 2.33887 1.04027Z" fill="#08E300"/>
<path d="M3.86523 0.000282288L3.86523 6.20508L4.25503 6.20508L4.25503 0.000282271L3.86523 0.000282288Z" fill="#545152"/>
<path d="M2.50195 3.8147e-05L2.50195 6.20483L3.86623 6.20483L3.86623 3.80873e-05L2.50195 3.8147e-05Z" fill="#927C6F"/>
<path d="M-1.1645e-07 3.54029L-1.54755e-07 2.66396C-1.8564e-07 1.9574 0.280676 1.27979 0.780284 0.780184C1.27989 0.280577 1.9575 -9.99792e-05 2.66406 -0.00010001L2.66406 6.20435C1.9575 6.20435 1.27989 5.92367 0.780284 5.42406C0.280676 4.92445 -8.55652e-08 4.24684 -1.1645e-07 3.54029H-1.1645e-07Z" fill="#FF6D84"/>
<g style="mix-blend-mode:soft-light">
<path d="M0 2.0791C-2.4102e-08 1.52771 0.219038 0.998907 0.608929 0.609016C0.99882 0.219125 1.52763 8.62516e-05 2.07901 8.62275e-05L4.25548 8.61324e-05L4.25548 2.0791L0 2.0791Z" fill="#B2B2B2"/>
</g>
</svg>
